<svg xmlns="http://www.w3.org/2000/svg" viewBox="0 0 64 64">
  <defs>
    <linearGradient id="halo" x1="10" x2="54" y1="8" y2="56" gradientUnits="userSpaceOnUse">
      <stop stop-color="#22d3ff"/>
      <stop offset="1" stop-color="#55d86a"/>
    </linearGradient>
    <linearGradient id="visor" x1="20" x2="44" y1="24" y2="24" gradientUnits="userSpaceOnUse">
      <stop stop-color="#2d9cff"/>
      <stop offset="1" stop-color="#22d3ff"/>
    </linearGradient>
  </defs>
  <rect width="64" height="64" rx="16" fill="#06111c"/>
  <rect x="7" y="7" width="50" height="50" rx="14" fill="none" stroke="url(#halo)" stroke-width="2.5"/>
  <path d="M20 23a12 12 0 0 1 24 0v2H20z" fill="#102333" stroke="#dff7ff" stroke-width="2"/>
  <path d="M17 25h30v7H17z" fill="url(#visor)" stroke="#dff7ff" stroke-width="2"/>
  <circle cx="27" cy="29" r="2.3" fill="#dff7ff"/>
  <circle cx="37" cy="29" r="2.3" fill="#dff7ff"/>
  <path d="M26 39h12" stroke="#dff7ff" stroke-width="2.4" stroke-linecap="round"/>
  <path d="M32 11v7M24 15v5M40 15v5" stroke="#dff7ff" stroke-width="2" stroke-linecap="round"/>
  <path d="M14 42h15l2 5h-9l-2 5" fill="none" stroke="#22d3ff" stroke-width="2.5" stroke-linecap="round" stroke-linejoin="round"/>
  <path d="m41 38 7-7 3 3-7 7m-3 4 1-4 3 3-4 1Z" fill="none" stroke="#55d86a" stroke-width="2.5" stroke-linecap="round" stroke-linejoin="round"/>
</svg>
